<?xml version="1.0"?>
<svg xmlns="http://www.w3.org/2000/svg" height="512px" viewBox="0 -48 512 512" width="512px" class=""><g><path d="m232 63h15v64h-15zm0 0" data-original="#000000" class="active-path" data-old_color="#000000" fill="#FFFBFB"/><path d="m232 143h15v16h-15zm0 0" data-original="#000000" class="active-path" data-old_color="#000000" fill="#FFFBFB"/><path d="m312 191h15v64h-15zm0 0" data-original="#000000" class="active-path" data-old_color="#000000" fill="#FFFBFB"/><path d="m154.105469 207-74.105469-74.105469v43.105469h-80v63h80v42.105469zm-139.105469 17v-33h80v-21.894531l37.894531 37.894531-37.894531 37.894531v-20.894531zm0 0" data-original="#000000" class="active-path" data-old_color="#000000" fill="#FFFBFB"/><path d="m455 400v-400h-287v400h-56v15h400v-15zm-272-385h257v385h-17v-368h-223v271h15v-256h167.191406l-94.191406 43.222656v265.554688l94.191406 44.222656h-167.191406v-81h-15v81h-17zm225 380.222656-105-49v-246.445312l105-49zm0 0" data-original="#000000" class="active-path" data-old_color="#000000" fill="#FFFBFB"/></g> </svg>
